# xmcd CD database file
#
# Track frame offsets:
#	150
#	15276
#	21656
#	80958
#	107965
#	125839
#	180473
#	184580
#
# Disc length: 3004 seconds
#
# Revision: 1
# Processed by: cddbd v1.5.2PL0 Copyright (c) Steve Scherf et al.
# Submitted via: CDex 1.70beta2
#
DISCID=690bba08
DTITLE=菊池雅章 - Hairpin Circus
DYEAR=1972
DGENRE=Jazz
TTITLE0=Circus (Theme from Hairpin Circus)
TTITLE1=For Travelers
TTITLE2=Luna Eclips ～ Lamentation
TTITLE3=Pierrot's Samba
TTITLE4=Yellow Carcas In The Blue
TTITLE5=Provincial
TTITLE6=Sadness
TTITLE7=Circus ～ No Trace
EXTD=YEAR: 1972
EXTT0=
EXTT1=
EXTT2=
EXTT3=
EXTT4=
EXTT5=
EXTT6=
EXTT7=
PLAYORDER=
